<svg xmlns="http://www.w3.org/2000/svg" xmlns:xlink="http://www.w3.org/1999/xlink" width="32" height="32" viewBox="0 0 32 32"><defs><path id="v4r4a" d="M525.1 5079.34c-4.25 0-4.76.01-6.43.09-1.55.07-2.4.33-2.96.54-.74.29-1.27.63-1.83 1.18-.55.55-.9 1.07-1.19 1.81a8.64 8.64 0 0 0-.54 2.92c-.08 1.67-.1 2.16-.1 6.37 0 4.2.02 4.7.1 6.36.07 1.54.33 2.37.54 2.93.3.73.64 1.26 1.2 1.8.55.56 1.08.9 1.82 1.19.56.21 1.4.47 2.96.54 1.67.08 2.18.1 6.42.1 4.25 0 4.75-.02 6.43-.1a8.87 8.87 0 0 0 2.95-.54 4.93 4.93 0 0 0 1.83-1.18c.56-.55.9-1.08 1.2-1.81.21-.56.47-1.4.54-2.93.08-1.66.1-2.16.1-6.36s-.02-4.7-.1-6.37a8.64 8.64 0 0 0-.55-2.92 4.88 4.88 0 0 0-1.19-1.81 4.93 4.93 0 0 0-1.83-1.18 8.88 8.88 0 0 0-2.95-.54c-1.68-.08-2.18-.1-6.43-.1 0 0 4.25 0 0 0zm0-2.84a114 114 0 0 1 6.55.1c1.7.07 2.85.34 3.86.73 1.05.4 1.94.94 2.82 1.81a7.71 7.71 0 0 1 1.83 2.8c.4 1 .67 2.14.74 3.82.08 1.68.1 2.21.1 6.49s-.02 4.81-.1 6.5a11.46 11.46 0 0 1-.74 3.82 7.71 7.71 0 0 1-1.83 2.79 7.8 7.8 0 0 1-2.82 1.81c-1 .4-2.16.66-3.86.73-1.7.08-2.24.1-6.56.1-4.32 0-4.86-.02-6.55-.1-1.7-.07-2.85-.34-3.86-.73a7.8 7.8 0 0 1-2.82-1.81 7.71 7.71 0 0 1-1.84-2.8c-.39-1-.66-2.14-.74-3.82-.07-1.68-.1-2.21-.1-6.5 0-4.27.03-4.8.1-6.48.08-1.68.35-2.83.74-3.83.41-1.03.95-1.91 1.84-2.79a7.81 7.81 0 0 1 2.82-1.81c1-.4 2.16-.66 3.86-.74 1.7-.07 2.23-.1 6.55-.1zm8.16 15.75a8.13 8.13 0 0 1-8.17 8.09 8.13 8.13 0 0 1-8.16-8.1 8.13 8.13 0 0 1 8.16-8.08 8.13 8.13 0 0 1 8.17 8.09zm-2.86 0c0-2.9-2.38-5.25-5.3-5.25a5.28 5.28 0 0 0-5.3 5.25c0 2.9 2.37 5.25 5.3 5.25 2.92 0 5.3-2.35 5.3-5.25zm5.1-8.4a1.9 1.9 0 0 1-1.92 1.88 1.9 1.9 0 0 1-1.9-1.89 1.9 1.9 0 0 1 1.9-1.89c1.06 0 1.91.85 1.91 1.9z"/></defs><g><g transform="translate(-509 -5076)"><use fill="#fff" xlink:href="#v4r4a"/></g></g></svg>