<svg xmlns="http://www.w3.org/2000/svg" xmlns:xlink="http://www.w3.org/1999/xlink" width="19" height="32" viewBox="0 0 19 32"><defs><path id="7iw4a" d="M476.85 5084.63a8.12 8.12 0 0 1 8.1-8.13 8.12 8.12 0 0 1 0 16.25 8.12 8.12 0 0 1-8.1-8.12zm4.75 0c0 1.85 1.5 3.36 3.35 3.36a3.36 3.36 0 0 0 0-6.73 3.36 3.36 0 0 0-3.35 3.37zm11.15 19.3c.93.93.93 2.44 0 3.37-.92.93-2.42.93-3.35 0l-4.45-4.47-4.45 4.47a2.36 2.36 0 0 1-3.35 0 2.39 2.39 0 0 1 0-3.37l4.52-4.54a15.14 15.14 0 0 1-4.7-1.96 2.39 2.39 0 0 1-.74-3.28 2.36 2.36 0 0 1 3.27-.75c3.31 2.1 7.58 2.1 10.9 0a2.37 2.37 0 0 1 3.27.75c.7 1.1.37 2.58-.74 3.28a15.13 15.13 0 0 1-4.7 1.96z"/></defs><g><g transform="translate(-475 -5076)"><use fill="#fff" xlink:href="#7iw4a"/></g></g></svg>