<svg xmlns="http://www.w3.org/2000/svg" xmlns:xlink="http://www.w3.org/1999/xlink" width="47" height="27" viewBox="0 0 47 27"><defs><path id="ys27a" d="M410.97 5104.62h2.81s.85-.09 1.28-.55c.4-.43.39-1.24.39-1.24s-.06-3.75 1.69-4.3c1.72-.55 3.94 3.62 6.28 5.23 1.77 1.22 3.12.95 3.12.95l6.27-.09s3.28-.2 1.73-2.77c-.13-.21-.9-1.9-4.66-5.39-3.94-3.64-3.41-3.05 1.33-9.35 2.88-3.84 4.03-6.19 3.67-7.19-.34-.96-2.46-.7-2.46-.7l-7.06.04s-.53-.07-.91.16-.63.76-.63.76-1.11 2.97-2.6 5.5c-3.15 5.32-4.4 5.6-4.92 5.27-1.2-.77-.9-3.1-.9-4.75 0-5.16.79-7.32-1.52-7.87a12.1 12.1 0 0 0-3.3-.33c-2.52-.03-4.65 0-5.86.6-.8.39-1.42 1.27-1.04 1.32.46.06 1.52.28 2.08 1.04.72.98.7 3.2.7 3.2s.41 6.07-.97 6.83c-.95.51-2.26-.54-5.06-5.38-1.44-2.48-2.52-5.21-2.52-5.21s-.21-.51-.59-.79c-.45-.33-1.08-.44-1.08-.44l-6.71.05s-1 .03-1.38.46c-.33.4-.02 1.2-.02 1.2s5.25 12.26 11.2 18.45c5.45 5.67 11.64 5.3 11.64 5.3z"/></defs><g><g transform="translate(-388 -5078)"><use fill="#fff" xlink:href="#ys27a"/></g></g></svg>