<svg xmlns="http://www.w3.org/2000/svg" xmlns:xlink="http://www.w3.org/1999/xlink" width="67" height="67" viewBox="0 0 67 67"><defs><path id="88s3a" d="M479.5 2161a33.54 33.54 0 0 1-33.5-33.5 33.54 33.54 0 0 1 33.5-33.5 33.54 33.54 0 0 1 33.5 33.5 33.54 33.54 0 0 1-33.5 33.5zm0-62.89a29.42 29.42 0 0 0-29.39 29.39 29.42 29.42 0 0 0 29.38 29.39 29.42 29.42 0 0 0 29.39-29.39 29.42 29.42 0 0 0-29.39-29.39zm-4.5 39.46c-.56 0-1.09-.2-1.44-.56l-10.17-10.08c-.4-.4-.62-.91-.62-1.44 0-.53.22-1.05.63-1.46.4-.4.92-.63 1.45-.63.53 0 1.04.23 1.45.63l8.71 8.72 16.13-16.23c.4-.4.91-.62 1.44-.62.53 0 1.05.22 1.46.63.4.4.63.92.63 1.45 0 .53-.23 1.04-.63 1.45l-17.58 17.58c-.36.36-.89.56-1.45.56z"/></defs><g><g transform="translate(-446 -2094)"><use fill="#fff" xlink:href="#88s3a"/></g></g></svg>