<svg xmlns="http://www.w3.org/2000/svg" xmlns:xlink="http://www.w3.org/1999/xlink" width="65" height="65" viewBox="0 0 65 65"><defs><path id="t6d2a" d="M803.95 2160c-.5 0-.94-.27-1.16-.72l-11.65-23.3a1.3 1.3 0 0 1 .58-1.74l4.29-2.15a5.14 5.14 0 0 1 4.75.06l.4.21 4.07-3.6a12.93 12.93 0 0 1 17.06-.03l.01.01.02.01.48.38c.99.77 1.4 1.09 2.29 1.09h10.18a5.16 5.16 0 0 1 4.95 3.64l.33 1.07 6.47-6.95a5.06 5.06 0 0 1 3.73-1.65c1.24 0 2.45.44 3.4 1.23a5.14 5.14 0 0 1 .8 7.06l-9.32 12.43a13 13 0 0 1-10.36 5.18h-23.61l.02.67a5.2 5.2 0 0 1-2.86 4.81l-4.3 2.15c-.18.1-.37.14-.57.14zm-5.63-25.87c-.4 0-.8.1-1.15.28l-3.14 1.57 10.5 20.99 3.13-1.57a2.6 2.6 0 0 0 1.16-3.47l-8.18-16.36a2.58 2.58 0 0 0-2.32-1.44zm15.46-6c-2.52 0-4.95.92-6.84 2.58l-4.05 3.57 7.68 15.36h24.7a10.4 10.4 0 0 0 8.29-4.14l9.32-12.44a2.59 2.59 0 0 0-3.97-3.31l-8.55 9.18a5.2 5.2 0 0 1-3.79 1.65h-11.21a1.3 1.3 0 0 1 0-2.6h9.91a2.6 2.6 0 0 0 0-5.17H825.1c-1.29 0-2.48-.35-4.46-2.1a10.35 10.35 0 0 0-6.85-2.57zm1.95-6.98a1.3 1.3 0 0 1-1.3-1.3v-1.93c0-4 2.21-7.74 5.77-9.73l.74-.42-.59-.6a7 7 0 0 1-2.03-4.92 7.35 7.35 0 0 1 7.24-7.25c1.9 0 3.7.76 5.04 2.15a7.28 7.28 0 0 1 2.08 5.1c0 1.83-.7 3.58-1.97 4.9l-.57.61.73.41a11.2 11.2 0 0 1 5.7 9.75v1.94c0 .71-.58 1.3-1.3 1.3zm9.83-11.78a8.66 8.66 0 0 0-8.54 8.55v.64h16.96v-.64a8.5 8.5 0 0 0-8.42-8.55zm0-11.78a4.78 4.78 0 0 0-4.66 4.66 4.66 4.66 0 0 0 4.66 4.53c2.5 0 4.54-2.03 4.54-4.53a4.66 4.66 0 0 0-4.54-4.66z"/></defs><g><g transform="translate(-791 -2095)"><use fill="#fff" xlink:href="#t6d2a"/></g></g></svg>